<svg id="Capa_1" data-name="Capa 1" xmlns="http://www.w3.org/2000/svg" viewBox="0 0 944 478"><defs><style>.cls-1{fill:#fff;}</style></defs><title>vers</title><path class="cls-1" d="M93.84,68.75H69.78v74.51H60V68.75H36V59.91H93.84Z"/><path class="cls-1" d="M118.89,144.66q-13.19,0-21.07-8.34T90,114.2q0-15,8.19-23.42t22.15-8.43q13.3,0,20.78,8.19t7.47,22.73q0,14.24-8,22.81T118.89,144.66Zm.7-54.29q-9.18,0-14.53,6.25t-5.35,17.23q0,10.58,5.41,16.68t14.47,6.11q9.24,0,14.21-6t5-17q0-11.16-5-17.21T119.59,90.37Z"/><path class="cls-1" d="M214.56,143.26H205V133.15h-.23q-6.63,11.5-20.46,11.51-11.22,0-17.93-8T159.7,114.9q0-14.76,7.43-23.66T187,82.35q12.25,0,17.84,9.65H205V55.15h9.53ZM205,116.35v-8.78a17,17,0,0,0-4.76-12.2,16,16,0,0,0-12.09-5q-8.73,0-13.72,6.39t-5,17.67q0,10.29,4.79,16.25a15.69,15.69,0,0,0,12.88,6,16.26,16.26,0,0,0,12.93-5.76Q205,125.12,205,116.35Z"/><path class="cls-1" d="M258.74,144.66q-13.2,0-21.07-8.34t-7.88-22.12q0-15,8.2-23.42t22.14-8.43q13.32,0,20.78,8.19t7.47,22.73q0,14.24-8.05,22.81T258.74,144.66Zm.7-54.29q-9.19,0-14.53,6.25t-5.35,17.23q0,10.58,5.4,16.68t14.48,6.11q9.24,0,14.21-6t5-17q0-11.16-5-17.21T259.44,90.37Z"/><path class="cls-1" d="M345.75,143.26h-9.53V55.15h9.53Z"/><path class="cls-1" d="M389.92,144.66q-13.19,0-21.06-8.34T361,114.2q0-15,8.19-23.42t22.15-8.43q13.31,0,20.78,8.19t7.47,22.73q0,14.24-8.05,22.81T389.92,144.66Zm.7-54.29q-9.18,0-14.53,6.25t-5.35,17.23q0,10.58,5.41,16.68t14.47,6.11q9.24,0,14.21-6t5-17q0-11.16-5-17.21T390.62,90.37Z"/><path class="cls-1" d="M518.21,170.64h-9.54V133h-.23q-6.22,11.63-20.34,11.63-11.22,0-18-8t-6.77-21.76q0-14.82,7.44-23.69t20-8.86q12.21,0,17.67,9.65h.23V83.74h9.54Zm-9.54-54.17v-8.66a17.33,17.33,0,0,0-4.79-12.38,16,16,0,0,0-12.18-5.06,16.36,16.36,0,0,0-13.6,6.36q-5,6.38-5,17.93,0,10.29,4.82,16.13a15.4,15.4,0,0,0,12.44,5.85q8.37,0,13.34-5.73T508.67,116.47Z"/><path class="cls-1" d="M585.63,143.26H576.1v-9.41h-.23q-5.94,10.8-18.37,10.81-21.27,0-21.28-25.35V83.74h9.48V117.8q0,18.84,14.41,18.84a14.58,14.58,0,0,0,11.48-5.15q4.51-5.15,4.51-13.45V83.74h9.53Z"/><path class="cls-1" d="M652.7,115.89h-42q.23,9.93,5.35,15.34t14.06,5.41A29.24,29.24,0,0,0,648.58,130v9q-7.85,5.7-20.75,5.7-12.62,0-19.82-8.11t-7.21-22.82q0-13.89,7.88-22.63a25.22,25.22,0,0,1,19.55-8.75q11.68,0,18.08,7.55t6.39,21Zm-9.76-8.08q-.06-8.27-4-12.85t-10.9-4.59a15.41,15.41,0,0,0-11.45,4.82,21.85,21.85,0,0,0-5.81,12.62Z"/><path class="cls-1" d="M696.12,141.11V130.88a28.21,28.21,0,0,0,17.15,5.76q12.56,0,12.56-8.37a7.23,7.23,0,0,0-1.08-4,10.69,10.69,0,0,0-2.91-2.94,22.49,22.49,0,0,0-4.3-2.3c-1.64-.67-3.42-1.38-5.32-2.12a68.23,68.23,0,0,1-6.94-3.16,21,21,0,0,1-5-3.61,13.21,13.21,0,0,1-3-4.56,16.12,16.12,0,0,1-1-6,14.21,14.21,0,0,1,1.92-7.41,17,17,0,0,1,5.11-5.4,23.82,23.82,0,0,1,7.3-3.29,32.61,32.61,0,0,1,8.46-1.1A34.19,34.19,0,0,1,732.86,85v9.65a27,27,0,0,0-15.11-4.3,17.58,17.58,0,0,0-4.83.61,12.09,12.09,0,0,0-3.69,1.71,7.88,7.88,0,0,0-2.38,2.65,7,7,0,0,0-.85,3.4,8.14,8.14,0,0,0,.85,3.89,8.42,8.42,0,0,0,2.47,2.79,18.51,18.51,0,0,0,3.95,2.21q2.33,1,5.29,2.15a75.94,75.94,0,0,1,7.09,3.11A24.4,24.4,0,0,1,731,116.5a14.06,14.06,0,0,1,3.4,4.62,14.94,14.94,0,0,1,1.19,6.22,14.65,14.65,0,0,1-2,7.67,16.65,16.65,0,0,1-5.2,5.4,23.74,23.74,0,0,1-7.5,3.2,36.88,36.88,0,0,1-8.89,1A33.85,33.85,0,0,1,696.12,141.11Z"/><path class="cls-1" d="M775.11,144.66q-13.18,0-21.07-8.34t-7.87-22.12q0-15,8.19-23.42t22.15-8.43q13.31,0,20.78,8.19t7.47,22.73q0,14.24-8,22.81T775.11,144.66Zm.7-54.29q-9.18,0-14.53,6.25t-5.35,17.23q0,10.58,5.41,16.68t14.47,6.11q9.24,0,14.21-6t5-17q0-11.16-5-17.21T775.81,90.37Z"/><path class="cls-1" d="M867.36,83.74,840,152.79q-7.32,18.5-20.57,18.49a21.86,21.86,0,0,1-6.22-.76V162a17.54,17.54,0,0,0,5.63,1q7.21,0,10.81-8.6l4.77-11.27L811.15,83.74h10.58l16.1,45.8c.19.59.6,2.1,1.22,4.54h.35c.19-.93.58-2.4,1.16-4.42l16.92-45.92Z"/><path class="cls-1" d="M886.31,130l-9.3,28.6h-6.8L877,130Z"/><path class="cls-1" d="M85.88,286.11H76.35v-9.3h-.24Q69.9,287.51,57.8,287.5q-8.88,0-13.92-4.71t-5-12.49q0-16.68,19.64-19.42l17.85-2.49q0-15.18-12.27-15.18a29.3,29.3,0,0,0-19.41,7.33v-9.77a36.87,36.87,0,0,1,20.22-5.58q21,0,21,22.21ZM76.35,256,62,258q-6.63.93-10,3.28t-3.37,8.34a9.09,9.09,0,0,0,3.11,7.12A12,12,0,0,0,60,279.48a15.27,15.27,0,0,0,11.71-5,17.76,17.76,0,0,0,4.63-12.58Z"/><path class="cls-1" d="M113.37,286.11h-9.53V198h9.53Z"/><path class="cls-1" d="M175.27,286.11h-9.53v-9.3h-.23q-6.22,10.69-18.31,10.69-8.89,0-13.92-4.71t-5-12.49q0-16.68,19.65-19.42l17.84-2.49q0-15.18-12.26-15.18a29.35,29.35,0,0,0-19.42,7.33v-9.77a36.9,36.9,0,0,1,20.23-5.58q21,0,21,22.21ZM165.74,256l-14.36,2c-4.41.62-7.75,1.71-10,3.28S138,265.61,138,269.6a9.06,9.06,0,0,0,3.11,7.12,12,12,0,0,0,8.28,2.76,15.28,15.28,0,0,0,11.71-5,17.75,17.75,0,0,0,4.62-12.58Z"/><path class="cls-1" d="M203,277.51h-.24v8.6h-9.53V198h9.53v39.06H203q7-11.85,20.57-11.86,11.46,0,17.93,8T248,254.6q0,14.94-7.27,23.92t-19.88,9Q209,287.5,203,277.51Zm-.24-24v8.31a17.7,17.7,0,0,0,4.8,12.53,17.12,17.12,0,0,0,25.75-1.48q4.91-6.63,4.91-18.43,0-9.94-4.59-15.58a15.2,15.2,0,0,0-12.44-5.64A16.88,16.88,0,0,0,207.82,239,21.23,21.23,0,0,0,202.76,253.5Z"/><path class="cls-1" d="M311.05,258.73H269q.23,9.94,5.35,15.35t14.06,5.4a29.26,29.26,0,0,0,18.48-6.62v8.95q-7.85,5.69-20.75,5.69-12.6,0-19.82-8.11t-7.2-22.81q0-13.89,7.87-22.64a25.26,25.26,0,0,1,19.56-8.75q11.69,0,18.08,7.56t6.39,21Zm-9.76-8.08q-.06-8.25-4-12.84t-10.89-4.6A15.37,15.37,0,0,0,275,238a21.93,21.93,0,0,0-5.82,12.61Z"/><path class="cls-1" d="M385.68,285.53a18.38,18.38,0,0,1-8.89,1.86q-15.63,0-15.64-17.44V234.73H350.92v-8.14h10.23V212.06l9.54-3.08v17.61h15v8.14h-15v33.53c0,4,.67,6.84,2,8.55s3.6,2.56,6.74,2.56a10,10,0,0,0,6.22-2Z"/><path class="cls-1" d="M446.54,286.11H437v-9.42h-.24q-5.92,10.81-18.36,10.81-21.29,0-21.28-25.34V226.59h9.48v34.06q0,18.83,14.41,18.83a14.57,14.57,0,0,0,11.48-5.14q4.5-5.14,4.51-13.46V226.59h9.53Z"/><path class="cls-1" d="M547.79,286.11h-9.53v-34q0-18.94-13.84-18.95a15,15,0,0,0-11.82,5.38,19.94,19.94,0,0,0-4.68,13.57v34h-9.54V226.59h9.54v9.88h.23q6.74-11.28,19.53-11.28,9.77,0,14.94,6.31t5.17,18.22Z"/><path class="cls-1" d="M590.63,287.5q-13.2,0-21.07-8.34t-7.88-22.11q0-15,8.2-23.43T592,225.19q13.32,0,20.78,8.2t7.47,22.73q0,14.24-8,22.81T590.63,287.5Zm.7-54.29q-9.2,0-14.54,6.25t-5.34,17.24q0,10.57,5.4,16.68t14.48,6.1q9.24,0,14.21-6t5-17q0-11.16-5-17.2T591.33,233.21Z"/><path class="cls-1" d="M720,286.11h-9.53V251.93q0-9.88-3.05-14.3t-10.26-4.42q-6.1,0-10.38,5.58a21.4,21.4,0,0,0-4.27,13.37v34H673V250.77q0-17.55-13.54-17.56a12.54,12.54,0,0,0-10.35,5.27c-2.71,3.5-4.07,8.07-4.07,13.68v34H635.5V226.59H645V236h.23q6.35-10.8,18.49-10.81a17.3,17.3,0,0,1,10.64,3.4,17.08,17.08,0,0,1,6.21,8.93q6.63-12.33,19.77-12.33,19.64,0,19.64,24.24Z"/><path class="cls-1" d="M747.8,277.51h-.24v8.6H738V198h9.53v39.06h.24q7-11.85,20.57-11.86,11.46,0,17.93,8t6.48,21.41q0,14.94-7.26,23.92t-19.88,9Q753.84,287.5,747.8,277.51Zm-.24-24v8.31a17.7,17.7,0,0,0,4.8,12.53,17.12,17.12,0,0,0,25.75-1.48q4.9-6.63,4.91-18.43,0-9.94-4.59-15.58A15.2,15.2,0,0,0,766,233.21,16.88,16.88,0,0,0,752.62,239,21.23,21.23,0,0,0,747.56,253.5Z"/><path class="cls-1" d="M839.05,236.24q-2.5-1.92-7.21-1.92-6.09,0-10.2,5.75t-4.1,15.7v30.34H808V226.59h9.53v12.26h.24a20.73,20.73,0,0,1,6.22-9.79,14.16,14.16,0,0,1,9.36-3.52,15.39,15.39,0,0,1,5.69.82Z"/><path class="cls-1" d="M897.23,258.73h-42q.22,9.94,5.35,15.35t14.06,5.4a29.29,29.29,0,0,0,18.49-6.62v8.95q-7.85,5.69-20.75,5.69-12.61,0-19.82-8.11t-7.21-22.81q0-13.89,7.87-22.64a25.26,25.26,0,0,1,19.56-8.75q11.68,0,18.08,7.56t6.39,21Zm-9.76-8.08q-.06-8.25-4-12.84t-10.9-4.6A15.38,15.38,0,0,0,861.14,238a21.85,21.85,0,0,0-5.81,12.61Z"/><path class="cls-1" d="M41.74,419.94v-70H55.39V354H46.48v61.91h8.91v4.06Z"/><path class="cls-1" d="M62.59,398.61a19.71,19.71,0,0,0,3.16,1.93A25.45,25.45,0,0,0,69.29,402a25,25,0,0,0,3.64.88,21.71,21.71,0,0,0,3.51.3q6.48,0,9.7-2.51a8.58,8.58,0,0,0,3.23-7.2,8.93,8.93,0,0,0-3.11-7.12,24.1,24.1,0,0,0-4-2.93q-2.43-1.45-5.73-3.28c-2.45-1.33-4.53-2.58-6.27-3.76A23,23,0,0,1,66,372.73a12.29,12.29,0,0,1-2.43-4,14.5,14.5,0,0,1-.77-4.89,13,13,0,0,1,1.47-6.21,14.53,14.53,0,0,1,4-4.68,18.52,18.52,0,0,1,5.87-3,24.25,24.25,0,0,1,7.18-1,29.58,29.58,0,0,1,11.26,1.87v5.84a23.45,23.45,0,0,0-11.86-2.9,18.12,18.12,0,0,0-4.79.62A12.4,12.4,0,0,0,72,356.2a8.69,8.69,0,0,0-2.67,3,8.39,8.39,0,0,0-1,4.12,10.15,10.15,0,0,0,.66,3.84,9.1,9.1,0,0,0,2.1,3A20.16,20.16,0,0,0,74.9,373q2.37,1.41,5.79,3.24A67.54,67.54,0,0,1,86.94,380a24.4,24.4,0,0,1,4.44,3.78A13.85,13.85,0,0,1,94,387.93a13.09,13.09,0,0,1,.88,4.91,14.82,14.82,0,0,1-1.4,6.59,12.8,12.8,0,0,1-3.89,4.71,17.85,17.85,0,0,1-6,2.83,28.81,28.81,0,0,1-7.6.95,27.59,27.59,0,0,1-3.23-.22c-1.24-.14-2.5-.36-3.77-.63a34.66,34.66,0,0,1-3.65-1,13,13,0,0,1-2.8-1.25Z"/><path class="cls-1" d="M129.35,407v-7.25h-.16a14.86,14.86,0,0,1-5.43,6,14.38,14.38,0,0,1-7.78,2.15,15.82,15.82,0,0,1-5.31-.84,11.29,11.29,0,0,1-4-2.36,10.46,10.46,0,0,1-2.54-3.68,12.17,12.17,0,0,1-.9-4.74,11.65,11.65,0,0,1,3.42-8.81c2.29-2.19,5.73-3.61,10.35-4.28l12.37-1.79q0-11.73-9.11-11.74A19.9,19.9,0,0,0,107,374.9v-5.57a16.94,16.94,0,0,1,2.89-1.65,25.41,25.41,0,0,1,3.4-1.28,27.69,27.69,0,0,1,3.68-.83,23.49,23.49,0,0,1,3.68-.3q6.81,0,10.28,3.82t3.49,11.38V407Zm-10.5-19.78a32.27,32.27,0,0,0-4.7,1,9.44,9.44,0,0,0-3.22,1.61,6,6,0,0,0-1.87,2.5,10,10,0,0,0-.6,3.68,7.94,7.94,0,0,0,.58,3,6.87,6.87,0,0,0,1.67,2.41,7.67,7.67,0,0,0,2.67,1.57,10.65,10.65,0,0,0,3.56.55,11.74,11.74,0,0,0,8.89-3.89,13.41,13.41,0,0,0,2.59-4.38,16,16,0,0,0,.93-5.53v-4Z"/><path class="cls-1" d="M146.7,407V346.65h5.09V407Z"/><path class="cls-1" d="M167.27,407.76a3.81,3.81,0,0,1-3.82-3.82,3.75,3.75,0,0,1,1.1-2.74,3.63,3.63,0,0,1,2.72-1.12,3.71,3.71,0,0,1,1.49.3,4.1,4.1,0,0,1,1.22.8,3.77,3.77,0,0,1,.83,1.21,3.65,3.65,0,0,1,.32,1.55,3.41,3.41,0,0,1-.32,1.49,4.18,4.18,0,0,1-.83,1.22,3.94,3.94,0,0,1-1.22.81A3.71,3.71,0,0,1,167.27,407.76Z"/><path class="cls-1" d="M215.49,407V356a28.71,28.71,0,0,1-3.12,2.31c-1.15.74-2.33,1.43-3.54,2.08s-2.41,1.24-3.62,1.75-2.33.95-3.36,1.3v-4.5a40.52,40.52,0,0,0,9-4.16,66.1,66.1,0,0,0,8.3-6.1h1.47V407Z"/><path class="cls-1" d="M250,407.92a14.57,14.57,0,0,1-7.32-1.83,15.64,15.64,0,0,1-5.47-5.39,27.72,27.72,0,0,1-3.42-8.85,56.33,56.33,0,0,1-1.18-12.22q0-15.19,4.8-22.94A15.33,15.33,0,0,1,251.26,349q17.19,0,17.19,29.24A59.23,59.23,0,0,1,267.22,391a29.47,29.47,0,0,1-3.6,9.31,16.36,16.36,0,0,1-5.79,5.71A15.56,15.56,0,0,1,250,407.92Zm.92-54.51q-6.37,0-9.71,6.45t-3.35,19.37q0,11.94,3.21,18.13t9.49,6.18a9.38,9.38,0,0,0,5.43-1.61,12.28,12.28,0,0,0,4-4.73,27.61,27.61,0,0,0,2.4-7.74,61,61,0,0,0,.82-10.62Q263.2,353.42,251,353.41Z"/><path class="cls-1" d="M276.93,399.29a22.1,22.1,0,0,0,12.73,4.25,20,20,0,0,0,5.21-.67,12.88,12.88,0,0,0,4.44-2.13,10.7,10.7,0,0,0,3.08-3.7,11.68,11.68,0,0,0,1.15-5.39q0-6-4.19-9t-12.36-3h-4.53v-4.42h4.18q7.39,0,11.14-2.92t3.74-8.53c0-3.37-.93-5.94-2.77-7.7s-4.61-2.65-8.29-2.65a19.53,19.53,0,0,0-11.3,3.9v-5.13A25.66,25.66,0,0,1,291.53,349a20.05,20.05,0,0,1,5.81.83,14.11,14.11,0,0,1,4.87,2.53,12.38,12.38,0,0,1,3.34,4.21,13.12,13.12,0,0,1,1.26,5.91q0,11.43-11.3,14.61v.15a18.28,18.28,0,0,1,5.21,1.38,13.69,13.69,0,0,1,4.22,2.82,13,13,0,0,1,2.82,4.22,13.89,13.89,0,0,1,1,5.47,16.49,16.49,0,0,1-1.51,7.2,15.29,15.29,0,0,1-4.14,5.29,18.31,18.31,0,0,1-6.15,3.27,26.8,26.8,0,0,1-20.07-2Z"/><path class="cls-1" d="M323.88,373.07a3.69,3.69,0,0,1-2.71-1.14,4,4,0,0,1-.81-1.23,3.71,3.71,0,0,1-.3-1.49,3.64,3.64,0,0,1,1.11-2.69,3.72,3.72,0,0,1,2.71-1.09,3.82,3.82,0,0,1,1.45.28,3.93,3.93,0,0,1,1.23.77,3.68,3.68,0,0,1,1.18,2.73,3.68,3.68,0,0,1-.32,1.53,3.87,3.87,0,0,1-.86,1.21,4.07,4.07,0,0,1-1.23.82A3.66,3.66,0,0,1,323.88,373.07Zm0,34.69a3.79,3.79,0,0,1-3.82-3.82,3.74,3.74,0,0,1,1.09-2.74,3.65,3.65,0,0,1,2.73-1.12,3.74,3.74,0,0,1,1.49.3,4,4,0,0,1,1.21.8,3.64,3.64,0,0,1,.84,1.21,3.8,3.8,0,0,1,.32,1.55,3.56,3.56,0,0,1-.32,1.49,4,4,0,0,1-.84,1.22,3.89,3.89,0,0,1-1.21.81A3.74,3.74,0,0,1,323.88,407.76Z"/><path class="cls-1" d="M349.78,407V356a30.81,30.81,0,0,1-3.12,2.31c-1.16.74-2.34,1.43-3.55,2.08s-2.41,1.24-3.62,1.75-2.32.95-3.36,1.3v-4.5a40.52,40.52,0,0,0,9-4.16,65.38,65.38,0,0,0,8.3-6.1h1.47V407Z"/><path class="cls-1" d="M365.46,419.94v-4.06h8.87V354h-8.87v-4.06h13.6v70Z"/></svg>